# xmcd
#
# Track frame offsets:
#       150
#       9757
#       20645
#       39612
#       47070
#       62060
#       70497
#       80142
#       89037
#       102652
#       117837
#       125962
#       138910
#       145877
#
# Disc length: 2095 seconds
#
# Revision: 1
# Processed by: cddbd v1.5.1PL0 Copyright (c) Steve Scherf et al.
# Submitted via: MusiCat 1.1
#
DISCID=d2082d0e
DTITLE=Enúbio Queiroz - Riacho dos passarinhos
DYEAR=1900
DGENRE=
TTITLE0=Riacho dos passarinhos
TTITLE1=Serenata portuguesa
TTITLE2=João de barro/Boiadeiro errante/Piracicaba/Luar do sertão/Quão grande 
TTITLE2=és tu
TTITLE3=Country dance
TTITLE4=Pagode em Brasília
TTITLE5=Viola Bernardino
TTITLE6=Flamengo à moda mineira
TTITLE7=Chalana
TTITLE8=Viola blues
TTITLE9=Nas asas do tico tico
TTITLE10=O vôo da juriti
TTITLE11=Acordes orientais
TTITLE12=Um cowboy no arrasta pé
TTITLE13=Conversa ao som da viola
EXTD=\n\n
EXTT0=
EXTT1=
EXTT2=
EXTT3=
EXTT4=
EXTT5=
EXTT6=
EXTT7=
EXTT8=
EXTT9=
EXTT10=
EXTT11=
EXTT12=
EXTT13=
PLAYORDER=
